<svg height="927pt" viewBox="1 0 927.997 927" width="927pt" xmlns="http://www.w3.org/2000/svg" xmlns:xlink="http://www.w3.org/1999/xlink"><linearGradient id="a"><stop offset="0" stop-color="#fc5c7d"/><stop offset=".129" stop-color="#f35e85"/><stop offset=".343" stop-color="#d9659b"/><stop offset=".616" stop-color="#b070bf"/><stop offset=".934" stop-color="#777ff0"/><stop offset="1" stop-color="#6a82fb"/></linearGradient><linearGradient id="b" gradientTransform="matrix(1.000004 0 0 -1.000004 0 927.322295)" gradientUnits="userSpaceOnUse" x1="656.5769" x2="656.5769" xlink:href="#a" y1="864.7568" y2="-60.7252"/><linearGradient id="c" gradientTransform="matrix(1.000004 0 0 -1.000004 0 927.322295)" gradientUnits="userSpaceOnUse" x1="201.9787" x2="201.9787" xlink:href="#a" y1="864.7568" y2="-60.7252"/><linearGradient id="d" gradientTransform="matrix(1.000004 0 0 -1.000004 0 927.322295)" gradientUnits="userSpaceOnUse" x1="271.3101" x2="271.3101" xlink:href="#a" y1="864.7568" y2="-60.7252"/><linearGradient id="e" gradientTransform="matrix(1.000004 0 0 -1.000004 0 927.322295)" gradientUnits="userSpaceOnUse" x1="725.963" x2="725.963" xlink:href="#a" y1="864.7568" y2="-60.7252"/><linearGradient id="f" gradientTransform="matrix(1.000004 0 0 -1.000004 0 927.322295)" gradientUnits="userSpaceOnUse" x1="463.9435" x2="463.9435" xlink:href="#a" y1="864.7568" y2="-60.7252"/><linearGradient id="g" gradientTransform="matrix(1.000004 0 0 -1.000004 0 927.322295)" gradientUnits="userSpaceOnUse" x1="632.1888" x2="632.1888" xlink:href="#a" y1="864.7568" y2="-60.7252"/><linearGradient id="h" gradientTransform="matrix(1.000004 0 0 -1.000004 0 927.322295)" gradientUnits="userSpaceOnUse" x1="788.0027" x2="788.0027" xlink:href="#a" y1="864.7568" y2="-60.7252"/><linearGradient id="i" gradientTransform="matrix(1.000004 0 0 -1.000004 0 927.322295)" gradientUnits="userSpaceOnUse" x1="295.6982" x2="295.6982" xlink:href="#a" y1="864.7568" y2="-60.7252"/><linearGradient id="j" gradientTransform="matrix(1.000004 0 0 -1.000004 0 927.322295)" gradientUnits="userSpaceOnUse" x1="139.8843" x2="139.8843" xlink:href="#a" y1="864.7568" y2="-60.7252"/><linearGradient id="k" gradientTransform="matrix(1.000004 0 0 -1.000004 0 927.322295)" gradientUnits="userSpaceOnUse" x1="526.4128" x2="526.4128" xlink:href="#a" y1="864.7568" y2="-60.7252"/><linearGradient id="l" gradientTransform="matrix(1.000004 0 0 -1.000004 0 927.322295)" gradientUnits="userSpaceOnUse" x1="401.4743" x2="401.4743" xlink:href="#a" y1="864.7568" y2="-60.7252"/><path d="m515.375.5-62.472656 62.46875c-6.09375 6.097656-6.09375 15.984375 0 22.082031l62.472656 62.46875 22.082031-22.082031-33.515625-33.515625c168.179688 17.230469 303.679688 145.539063 330.042969 312.535156l30.84375-4.964843c-28.933594-183.664063-179.527344-323.835938-364.789063-339.539063l37.480469-37.480469zm0 0" fill="url(#b)"/><path d="m62.46875 475.484375c6.097656 6.097656 15.984375 6.097656 22.082031 0l62.472657-62.46875-22.085938-22.082031-33.515625 33.515625c17.230469-168.183594 145.542969-303.679688 312.535156-330.042969l-4.964843-30.84375c-183.660157 28.929688-323.832032 179.527344-339.535157 364.789062l-37.484375-37.480468-21.972656 22.144531zm0 0" fill="url(#c)"/><path d="m412.519531 928.390625 62.46875-62.46875c6.097657-6.101563 6.097657-15.984375 0-22.085937l-62.46875-62.46875-22.085937 22.082031 33.515625 33.515625c-168.179688-17.226563-303.679688-145.539063-330.042969-312.535156l-30.84375 4.96875c28.933594 183.660156 179.527344 323.832031 364.792969 339.535156l-37.484375 37.484375zm0 0" fill="url(#d)"/><path d="m865.421875 453.402344c-6.097656-6.097656-15.984375-6.097656-22.082031 0l-62.46875 62.46875 22.082031 22.082031 33.515625-33.511719c-17.230469 168.179688-145.542969 303.679688-312.535156 330.039063l4.964844 30.847656c183.660156-28.933594 323.832031-179.53125 339.539062-364.792969l37.480469 37.484375 22.082031-22.085937zm0 0" fill="url(#e)"/><path d="m522.386719 748.492188c1.636719.003906 3.265625-.246094 4.824219-.75l52.070312-16.914063c6.898438-2.246094 11.34375-8.949219 10.726562-16.179687l-4.855468-57.441407 24.660156-17.851562 53.097656 22.382812c6.699219 2.839844 14.472656.675781 18.742188-5.21875l32.171875-44.367187c4.265625-5.871094 3.921875-13.910156-.828125-19.398438l-37.683594-43.601562 9.371094-29.003906 56.128906-13.117188c7.0625-1.65625 12.058594-7.957031 12.054688-15.210938v-54.753906c.003906-7.257812-4.992188-13.558594-12.054688-15.210937l-56.128906-13.121094-9.371094-29 37.683594-43.605469c4.75-5.488281 5.09375-13.523437.828125-19.394531l-32.1875-44.292969c-4.269531-5.890625-12.039063-8.054687-18.738281-5.214844l-53.101563 22.378907-24.660156-17.929688 4.859375-57.4375c.617187-7.234375-3.828125-13.9375-10.730469-16.183593l-52.054687-16.910157c-6.902344-2.242187-14.441407.566407-18.195313 6.777344l-29.8125 49.335937h-30.515625l-29.8125-49.335937c-3.753906-6.210937-11.292969-9.019531-18.195312-6.777344l-52.066407 16.914063c-6.902343 2.246094-11.347656 8.949218-10.730469 16.179687l4.859376 57.441407-24.660157 17.929687-53.101562-22.382813c-6.699219-2.839843-14.472657-.675781-18.742188 5.21875l-32.171875 44.289063c-4.261718 5.871094-3.921875 13.910156.828125 19.398437l37.6875 43.601563-9.371093 29.003906-56.128907 13.117188c-7.066406 1.652343-12.058593 7.957031-12.058593 15.210937v54.753906c0 7.253907 4.992187 13.558594 12.058593 15.210938l56.128907 13.121094 9.371093 29-37.6875 43.605468c-4.75 5.484376-5.089843 13.523438-.828125 19.394532l32.1875 44.292968c4.269532 5.890626 12.042969 8.054688 18.742188 5.214844l53.097656-22.378906 24.660156 17.929688-4.855468 57.4375c-.617188 7.230468 3.828124 13.933593 10.726562 16.179687l52.070312 16.914063c6.902344 2.246093 14.441407-.5625 18.195313-6.777344l29.8125-49.335938h30.515625l29.8125 49.335938c2.828125 4.671875 7.894531 7.527344 13.355469 7.527344zm-34.359375-88.097657h-48.148438c-5.464844.003907-10.527344 2.867188-13.351562 7.542969l-27.988282 46.261719-28.484374-9.246094 4.558593-53.863281c.464844-5.453125-1.960937-10.75-6.386719-13.964844l-38.917968-28.265625c-4.421875-3.214844-10.203125-3.886719-15.242188-1.765625l-49.835937 20.992188-17.617188-24.253907 35.359375-40.902343c3.605469-4.121094 4.789063-9.828126 3.125-15.039063l-14.871094-45.746094c-1.6875-5.203125-5.976562-9.140625-11.304687-10.386719l-52.664063-12.320312v-29.984375l52.632813-12.308594c5.328125-1.238281 9.617187-5.179687 11.304687-10.382812l14.867188-45.746094c1.667969-5.210937.484375-10.917969-3.121094-15.039063l-35.359375-40.902343 17.617188-24.253907 49.820312 20.992188c5.039063 2.121094 10.820313 1.449219 15.242188-1.765625l38.917969-28.265625c4.425781-3.214844 6.851562-8.511719 6.386718-13.964844l-4.515625-53.878906 28.488281-9.261719 27.921876 46.273438c2.828124 4.679687 7.890624 7.539062 13.355468 7.542969h48.132813c5.464843-.003907 10.527343-2.863282 13.351562-7.542969l27.988281-46.257813 28.484376 9.261719-4.496094 53.863281c-.464844 5.453125 1.960937 10.75 6.386718 13.964844l38.917969 28.261719c4.421875 3.21875 10.203125 3.886719 15.242188 1.765625l49.835937-20.988282 17.617188 24.253907-35.359375 40.980469c-3.605469 4.117187-4.789063 9.824218-3.121094 15.039062l14.867187 45.742188c1.691407 5.203124 5.980469 9.144531 11.308594 10.386718l52.628906 12.304688v29.984375l-52.628906 12.308593c-5.328125 1.242188-9.617187 5.179688-11.308594 10.386719l-14.867187 45.742188c-1.667969 5.214843-.480469 10.917969 3.121094 15.039062l35.359375 40.902344-17.617188 24.253906-49.789062-21.070312c-5.039063-2.117188-10.820313-1.449219-15.242188 1.765625l-38.917968 28.269531c-4.425782 3.210937-6.847657 8.507813-6.386719 13.960937l4.5625 53.863282-28.488281 9.261718-27.96875-46.257812c-2.835938-4.695312-7.929688-7.5625-13.414063-7.542969zm0 0" fill="url(#f)"/><path d="m620.121094 464.445312c0-86.253906-69.921875-156.175781-156.175782-156.175781-86.25 0-156.175781 69.921875-156.175781 156.175781 0 86.25 69.921875 156.171876 156.175781 156.171876 86.214844-.09375 156.078126-69.960938 156.175782-156.171876zm-156.175782 124.9375c-69 0-124.9375-55.9375-124.9375-124.9375 0-69.003906 55.9375-124.941406 124.9375-124.941406 69.003907 0 124.941407 55.9375 124.941407 124.941406-.078125 68.96875-55.972657 124.859376-124.941407 124.9375zm0 0" fill="url(#f)"/><path d="m622.210938 905.496094c10.339843-3.71875 20.601562-7.8125 30.453124-12.121094l-12.492187-28.59375c-9.214844 4.042969-18.742187 7.808594-28.457031 11.304688zm0 0" fill="url(#g)"/><path d="m668.097656 851.285156 14.570313 27.628906c106.3125-55.925781 186.988281-150.671874 225.25-264.542968l-29.582031-10.011719c-35.714844 106.285156-111.011719 194.71875-210.238282 246.925781zm0 0" fill="url(#h)"/><path d="m305.679688 23.394531c-10.339844 3.714844-20.597657 7.808594-30.453126 12.117188l12.492188 28.597656c9.214844-4.046875 18.742188-7.8125 28.457031-11.308594zm0 0" fill="url(#i)"/><path d="m259.796875 77.601562-14.496094-27.628906c-106.34375 55.910156-187.046875 150.660156-225.324219 264.542969l29.578126 10.011719c35.714843-106.285156 111.011718-194.71875 210.242187-246.925782zm0 0" fill="url(#j)"/><path d="m448.328125 448.828125h31.234375v31.234375h-31.234375zm0 0" fill="url(#f)"/><path d="m510.796875 448.828125h31.234375v31.234375h-31.234375zm0 0" fill="url(#k)"/><path d="m385.859375 448.828125h31.234375v31.234375h-31.234375zm0 0" fill="url(#l)"/></svg>